<?xml version="1.0" encoding="iso-8859-1"?>
<!-- Generator: Adobe Illustrator 19.0.0, SVG Export Plug-In . SVG Version: 6.00 Build 0)  -->
<svg version="1.1" id="Capa_1" xmlns="http://www.w3.org/2000/svg" xmlns:xlink="http://www.w3.org/1999/xlink" x="0px" y="0px"
	 viewBox="0 0 508.1 508.1" style="enable-background:new 0 0 508.1 508.1;" xml:space="preserve">
<path style="fill:#F2F2F2;" d="M486.8,0H21.2C9.5,0,0,9.5,0,21.2v465.7c0,11.7,9.5,21.2,21.2,21.2h465.7c11.7,0,21.2-9.5,21.2-21.2
	V21.2C508,9.5,498.5,0,486.8,0z"/>
<rect x="63.5" y="127" style="fill:#FFFFFF;" width="381" height="317.5"/>
<circle style="fill:#FFD15C;" cx="80.4" cy="63.5" r="16.9"/>
<circle style="fill:#84DBFF;" cx="124.7" cy="63.5" r="16.9"/>
<g>
	<circle style="fill:#FFFFFF;" cx="169" cy="63.5" r="16.9"/>
	<path style="fill:#FFFFFF;" d="M427.6,46.6H271.1c-9.3,0-16.9,7.6-16.9,16.9s7.6,16.9,16.9,16.9h156.5c9.3,0,16.9-7.6,16.9-16.9
		S436.9,46.6,427.6,46.6z"/>
</g>
<path style="fill:#334A5E;" d="M260.3,342l76.1-32l-58.7,58c-0.8,6.6-4.4,12.9-10.4,16.9c-11,7.3-25.9,4.4-33.2-6.6
	s-4.4-25.9,6.6-33.2C246.7,341.1,253.9,340.2,260.3,342z"/>
<circle style="fill:#FFFFFF;" cx="254" cy="365" r="14"/>
<path style="fill:#F1543F;" d="M347.6,337.1h60.9c0-42.7-17.3-81.3-45.3-109.3l-43.1,43.1C337.1,287.9,347.6,311.2,347.6,337.1z"/>
<path style="fill:#FF7058;" d="M320.2,270.9l43.1-43.1c-28-28-66.6-45.3-109.3-45.3v60.9C279.8,243.5,303.2,254,320.2,270.9z"/>
<path style="fill:#F8B64C;" d="M254,243.5v-60.9c-42.7,0-81.3,17.3-109.3,45.3l43.1,43.1C204.8,254,228.2,243.5,254,243.5z"/>
<path style="fill:#FFD15C;" d="M187.8,270.9l-43.1-43.1c-28,28-45.3,66.6-45.3,109.3h60.9C160.4,311.2,170.9,287.9,187.8,270.9z"/>
<g>
</g>
<g>
</g>
<g>
</g>
<g>
</g>
<g>
</g>
<g>
</g>
<g>
</g>
<g>
</g>
<g>
</g>
<g>
</g>
<g>
</g>
<g>
</g>
<g>
</g>
<g>
</g>
<g>
</g>
</svg>
