<?xml version="1.0" encoding="utf-8"?>
<!-- Generator: Adobe Illustrator 16.0.0, SVG Export Plug-In . SVG Version: 6.00 Build 0)  -->
<!DOCTYPE svg PUBLIC "-//W3C//DTD SVG 1.1//EN" "http://www.w3.org/Graphics/SVG/1.1/DTD/svg11.dtd">
<svg version="1.1" id="Capa_1" xmlns="http://www.w3.org/2000/svg" xmlns:xlink="http://www.w3.org/1999/xlink" x="0px" y="0px"
	 width="32px" height="32px" viewBox="0 0 32 32" enable-background="new 0 0 32 32" xml:space="preserve">
<g>
	<polygon fill="#4DBBEB" points="31.375,14.375 31.375,16.875 28.875,16.875 28.875,14.375 30.068,14.375 	"/>
	<path fill="#4DBBEB" d="M30.125,0.625c0.69,0,1.25,0.56,1.25,1.25s-0.56,1.25-1.25,1.25s-1.25-0.56-1.25-1.25
		S29.435,0.625,30.125,0.625z"/>
</g>
<path fill="#E2E2E2" d="M9.463,18.338L16,6.375l6.537,11.963l-2.615,6.93h-7.844L9.463,18.338z"/>
<polygon fill="#B2B2B2" points="16,6.473 16,25.365 19.922,25.365 22.537,18.436 "/>
<path fill="#FEB756" d="M19.922,25.268c0.722,0,1.308,0.585,1.308,1.307c0,0.361-0.146,0.688-0.384,0.925
	c-0.235,0.235-0.562,0.383-0.924,0.383h-7.844c-0.723,0-1.308-0.585-1.308-1.308c0-0.361,0.146-0.688,0.383-0.924
	c0.237-0.236,0.563-0.383,0.925-0.383H19.922z"/>
<rect x="12.078" y="27.882" fill="#4DBBEB" width="7.844" height="4.118"/>
<polygon fill="#4DBBEB" points="17.25,1.931 17.25,3.125 14.75,3.125 14.75,1.931 14.75,1.875 14.75,0.625 17.25,0.625 17.25,1.875 
	"/>
<path fill="#4DBBEB" d="M16,17.03c0.722,0,1.308,0.585,1.308,1.308S16.722,19.646,16,19.646c-0.722,0-1.307-0.585-1.307-1.308
	S15.278,17.03,16,17.03z"/>
<polygon fill="#4DBBEB" points="3.125,14.375 3.125,16.875 0.625,16.875 0.625,14.375 1.931,14.375 "/>
<path fill="#4DBBEB" d="M1.875,0.625c0.69,0,1.25,0.56,1.25,1.25s-0.56,1.25-1.25,1.25s-1.25-0.56-1.25-1.25
	S1.185,0.625,1.875,0.625z"/>
<path fill="#212121" d="M31.375,13.75h-0.748c-0.232-1.8-0.797-3.516-1.684-5.106c-0.168-0.302-0.549-0.41-0.85-0.242
	c-0.302,0.168-0.41,0.549-0.242,0.85c0.781,1.404,1.29,2.915,1.516,4.499h-0.492c-0.346,0-0.625,0.28-0.625,0.625v2.5
	c0,0.346,0.279,0.625,0.625,0.625h2.5c0.346,0,0.625-0.279,0.625-0.625v-2.5C32,14.03,31.721,13.75,31.375,13.75z M30.75,16.25H29.5
	V15h0.567h0.001l0,0h0.682V16.25z"/>
<path display="none" fill="#212121" d="M22.874,18.289c-0.001-0.01-0.001-0.02-0.001-0.029c-0.002-0.014-0.004-0.026-0.006-0.039
	c-0.001-0.008-0.002-0.016-0.004-0.024c-0.002-0.015-0.006-0.03-0.01-0.045c-0.002-0.006-0.003-0.012-0.005-0.017
	c-0.005-0.02-0.012-0.037-0.019-0.056c-0.002-0.002-0.002-0.004-0.003-0.006c-0.009-0.021-0.019-0.041-0.028-0.061l-6.25-11.438
	c-0.11-0.2-0.32-0.325-0.549-0.325s-0.439,0.125-0.548,0.325l-6.25,11.438c-0.011,0.02-0.021,0.04-0.029,0.061
	c-0.001,0.002-0.001,0.004-0.002,0.006c-0.007,0.019-0.014,0.036-0.019,0.056c-0.002,0.005-0.003,0.011-0.004,0.017
	c-0.004,0.015-0.008,0.03-0.011,0.045c-0.001,0.009-0.002,0.017-0.004,0.024c-0.002,0.013-0.003,0.025-0.005,0.039
	c0,0.01-0.001,0.02-0.001,0.029c0,0.008-0.001,0.016-0.001,0.023c0,0.004,0,0.008,0,0.012c0,0.01,0.001,0.02,0.001,0.029
	c0.001,0.014,0.002,0.025,0.003,0.037c0.001,0.01,0.002,0.018,0.004,0.026c0.002,0.014,0.005,0.026,0.008,0.04
	c0.001,0.008,0.003,0.015,0.006,0.022c0.004,0.015,0.008,0.028,0.013,0.042c0.001,0.004,0.002,0.008,0.004,0.012l2.254,5.973
	c-0.181,0.09-0.348,0.209-0.495,0.355c-0.354,0.354-0.549,0.826-0.549,1.326c0,0.814,0.522,1.51,1.25,1.768v3.42
	c0,0.346,0.28,0.625,0.625,0.625h7.5c0.346,0,0.625-0.279,0.625-0.625v-3.419c0.261-0.092,0.5-0.241,0.701-0.442
	c0.354-0.354,0.549-0.826,0.549-1.326c0-0.736-0.426-1.373-1.045-1.681l2.255-5.974c0.001-0.004,0.002-0.008,0.003-0.012
	c0.006-0.014,0.01-0.027,0.014-0.042c0.002-0.008,0.004-0.015,0.006-0.022c0.004-0.014,0.006-0.026,0.008-0.04
	c0.002-0.009,0.004-0.017,0.004-0.026c0.002-0.012,0.003-0.023,0.004-0.037c0-0.01,0.001-0.02,0.002-0.029c0-0.004,0-0.008,0-0.012
	C22.875,18.305,22.874,18.297,22.874,18.289z M19.75,18.938h1.596l-2.027,5.375h-6.636l-2.028-5.375h1.596
	c0.345,0,0.625-0.279,0.625-0.625s-0.28-0.625-0.625-0.625h-1.446l4.571-8.365v7.223c-0.728,0.258-1.25,0.953-1.25,1.768
	c0,1.033,0.841,1.875,1.875,1.875c1.033,0,1.875-0.842,1.875-1.875c0-0.814-0.522-1.51-1.25-1.768V9.322l4.571,8.365H19.75
	c-0.346,0-0.625,0.279-0.625,0.625S19.404,18.938,19.75,18.938z M16,17.688c0.345,0,0.625,0.28,0.625,0.625s-0.28,0.625-0.625,0.625
	s-0.625-0.28-0.625-0.625S15.655,17.688,16,17.688z M12.875,30.75v-2.688h6.25v2.688H12.875z M20.191,26.629
	c-0.117,0.119-0.274,0.184-0.441,0.184h-7.5c-0.345,0-0.625-0.28-0.625-0.625c0-0.167,0.065-0.324,0.183-0.441
	c0.118-0.119,0.275-0.184,0.442-0.184h7.496c0.001,0,0.002,0,0.004,0h0.002c0.344,0.002,0.623,0.281,0.623,0.625
	C20.375,26.354,20.311,26.512,20.191,26.629z"/>
<path fill="#212121" d="M3.907,8.401c-0.302-0.168-0.683-0.06-0.85,0.242C2.17,10.234,1.606,11.95,1.373,13.75H0.625
	C0.28,13.75,0,14.03,0,14.375v2.5C0,17.221,0.28,17.5,0.625,17.5h2.5c0.345,0,0.625-0.279,0.625-0.625v-2.5
	c0-0.345-0.28-0.625-0.625-0.625H2.633c0.226-1.584,0.734-3.095,1.516-4.499C4.316,8.95,4.208,8.569,3.907,8.401z M2.5,16.25H1.25
	V15h0.681c0,0,0,0,0.001,0h0H2.5V16.25z"/>
<path fill="#212121" d="M25.636,4.63c-1.006-0.849-2.229-1.573-3.562-2.13h6.283c0.258,0.728,0.953,1.25,1.768,1.25
	C31.158,3.75,32,2.909,32,1.875S31.158,0,30.125,0c-0.814,0-1.51,0.522-1.768,1.25H17.875V0.625C17.875,0.28,17.596,0,17.25,0h-2.5
	c-0.345,0-0.625,0.28-0.625,0.625V1.25H3.643C3.384,0.522,2.69,0,1.875,0C0.841,0,0,0.841,0,1.875S0.841,3.75,1.875,3.75
	c0.815,0,1.509-0.522,1.768-1.25h6.283C8.593,3.058,7.37,3.782,6.364,4.63C6.1,4.853,6.066,5.247,6.289,5.511
	c0.124,0.147,0.3,0.222,0.478,0.222c0.142,0,0.285-0.048,0.403-0.147c1.793-1.512,4.352-2.591,6.955-2.954v0.493
	c0,0.345,0.28,0.625,0.625,0.625h2.5c0.346,0,0.625-0.28,0.625-0.625V2.632c2.604,0.362,5.162,1.442,6.955,2.954
	c0.117,0.099,0.261,0.147,0.402,0.147c0.178,0,0.355-0.075,0.479-0.222C25.934,5.247,25.9,4.853,25.636,4.63z M30.125,1.25
	c0.345,0,0.625,0.28,0.625,0.625S30.47,2.5,30.125,2.5S29.5,2.22,29.5,1.875S29.78,1.25,30.125,1.25z M1.875,2.5
	C1.53,2.5,1.25,2.22,1.25,1.875S1.53,1.25,1.875,1.25S2.5,1.53,2.5,1.875S2.22,2.5,1.875,2.5z M16.625,2.5h-1.25V1.931V1.875V1.25
	h1.25v0.625v0.056V2.5z"/>
<path fill="#212121" d="M27,6.25c-0.346,0-0.625,0.28-0.625,0.625S26.654,7.5,27,7.5s0.625-0.28,0.625-0.625S27.346,6.25,27,6.25z"
	/>
<path fill="#212121" d="M5,6.25c-0.345,0-0.625,0.28-0.625,0.625S4.655,7.5,5,7.5s0.625-0.28,0.625-0.625S5.345,6.25,5,6.25z"/>
</svg>
